<?xml version="1.0" encoding="iso-8859-1"?>
<!-- Generator: Adobe Illustrator 19.0.0, SVG Export Plug-In . SVG Version: 6.00 Build 0)  -->
<svg version="1.1" id="Capa_1" xmlns="http://www.w3.org/2000/svg" xmlns:xlink="http://www.w3.org/1999/xlink" x="0px" y="0px"
	 viewBox="0 0 490.667 490.667" style="enable-background:new 0 0 490.667 490.667;" xml:space="preserve" fill="#92b0b3" >
<g>
	<g>
		<path d="M416.003,213.333c-8.768,0-16.939,2.667-23.723,7.211C386.435,203.947,370.584,192,352.003,192
			c-8.768,0-16.939,2.667-23.723,7.211c-5.845-16.597-21.696-28.544-40.277-28.544c-7.765,0-15.061,2.091-21.333,5.739v-69.739
			c0-23.531-19.136-42.667-42.667-42.667c-23.531,0-42.667,19.136-42.667,42.667V288l-37.077-27.797
			c-21.995-16.491-53.269-14.272-72.725,5.163c-12.48,12.48-12.48,32.768,0,45.248l151.936,151.936
			c18.133,18.133,42.24,28.117,67.883,28.117h49.984c64.704,0,117.333-52.629,117.333-117.333V256
			C458.669,232.469,439.533,213.333,416.003,213.333z M437.336,373.333c0,52.928-43.072,96-96,96h-49.963
			c-19.947,0-38.699-7.765-52.8-21.867L86.637,295.531c-4.16-4.16-4.16-10.923,0-15.083c6.613-6.613,15.424-9.984,24.299-9.984
			c7.211,0,14.443,2.24,20.544,6.805l54.123,40.597c3.221,2.432,7.552,2.816,11.179,1.003c3.605-1.813,5.888-5.504,5.888-9.536
			V106.667c0-11.755,9.579-21.333,21.333-21.333c11.755,0,21.333,9.579,21.333,21.333v160c0,5.888,4.779,10.667,10.667,10.667
			s10.667-4.779,10.667-10.667v-53.333c0-11.755,9.579-21.333,21.333-21.333c11.755,0,21.333,9.579,21.333,21.333v53.333
			c0,5.888,4.779,10.667,10.667,10.667s10.667-4.779,10.667-10.667v-32c0-11.755,9.579-21.333,21.333-21.333
			s21.333,9.579,21.333,21.333v32c0,5.888,4.779,10.667,10.667,10.667s10.667-4.779,10.667-10.667V256
			c0-11.755,9.579-21.333,21.333-21.333s21.333,9.579,21.333,21.333V373.333z"/>
	</g>
</g>
<g>
	<g>
		<path d="M224.003,21.333c-47.061,0-85.333,38.272-85.333,85.333c0,14.229,3.712,28.117,11.029,41.28
			c1.963,3.499,5.589,5.483,9.344,5.483c1.749,0,3.52-0.427,5.163-1.344c5.141-2.859,6.997-9.365,4.139-14.507
			c-5.547-9.941-8.341-20.352-8.341-30.912c0-35.285,28.715-64,64-64s64,28.715,64,64c0,5.077-0.811,10.389-2.539,16.747
			c-1.557,5.675,1.792,11.541,7.488,13.099c5.589,1.557,11.541-1.792,13.099-7.488c2.24-8.235,3.285-15.339,3.285-22.357
			C309.336,59.605,271.064,21.333,224.003,21.333z"/>
	</g>
</g>
<g>
	<g>
		<path d="M85.336,0c-5.888,0-10.667,4.779-10.667,10.667v170.667c0,5.888,4.779,10.667,10.667,10.667s10.667-4.779,10.667-10.667
			V10.667C96.003,4.779,91.224,0,85.336,0z"/>
	</g>
</g>
<g>
	<g>
		<path d="M135.533,131.136c-4.16-4.16-10.923-4.16-15.083,0l-35.115,35.115L50.2,131.136c-4.16-4.16-10.923-4.16-15.083,0
			c-4.16,4.16-4.16,10.923,0,15.083l42.667,42.667c2.091,2.069,4.821,3.115,7.552,3.115s5.461-1.045,7.531-3.115l42.667-42.667
			C139.693,142.059,139.693,135.296,135.533,131.136z"/>
	</g>
</g>
<g>
</g>
<g>
</g>
<g>
</g>
<g>
</g>
<g>
</g>
<g>
</g>
<g>
</g>
<g>
</g>
<g>
</g>
<g>
</g>
<g>
</g>
<g>
</g>
<g>
</g>
<g>
</g>
<g>
</g>
</svg>
