<?xml version="1.0" encoding="utf-8"?>
<!-- Generator: Adobe Illustrator 24.0.3, SVG Export Plug-In . SVG Version: 6.00 Build 0)  -->
<svg version="1.1" id="레이어_1" xmlns="http://www.w3.org/2000/svg" xmlns:xlink="http://www.w3.org/1999/xlink" x="0px"
	 y="0px" viewBox="0 0 800 200" style="enable-background:new 0 0 800 200;" xml:space="preserve">
<style type="text/css">
	.st0{fill:#0F9CD8;}
	.st1{fill:#1C5EAA;}
	.st2{fill:#6CC9EB;}
	.st3{fill:#FFFFFF;}
</style>
<g>
	<g>
		<path class="st0" d="M172.7,180.7C164.5,182.5,33.9,232,0,244.9v141.5c20.7-65.1,81.1-82.5,133-86.4c63.8-4.7,146.5-43.5,198-74
			s132-46.3,132-46.3S182.2,178.6,172.7,180.7z"/>
	</g>
	<path class="st1" d="M106.1,257.5c0,0,52.4-11.1,156.6-13.4C367,241.8,434.3,229.8,480,190S531.7,52.8,762.3,23.6
		c82.1-10.4-402.8,46.5-402.8,46.5L106.1,257.5z"/>
	<g>
		<path class="st2" d="M0,0v412.3C12,357.6,32.9,302.6,69.2,276c52.1-38.1,206.8-5,424.2-155.7C638.9,19.4,808,24,808,24V0H0z"/>
	</g>
</g>
<g>
	<g>
		<path class="st3" d="M52.1,127.4h-9.2v-2.1h3.3v-1.7h2.7v1.7h3.3L52.1,127.4L52.1,127.4z M47.5,134.6c-2.4,0-4.1-1.4-4.1-3.3
			s1.7-3.3,4.1-3.3c2.4,0,4.1,1.3,4.1,3.3S49.9,134.6,47.5,134.6z M47.5,132.7c1,0,1.7-0.5,1.7-1.4s-0.7-1.4-1.7-1.4
			s-1.7,0.5-1.7,1.4S46.5,132.7,47.5,132.7z M59.2,138.9c0,2.2-2.4,3.4-6.5,3.4s-6.5-1.2-6.5-3.4s2.4-3.5,6.5-3.5
			S59.2,136.7,59.2,138.9z M56.5,138.9c0-1-1.3-1.4-3.8-1.4s-3.8,0.4-3.8,1.4s1.3,1.4,3.8,1.4C55.2,140.3,56.5,139.9,56.5,138.9z
			 M55.1,134.6h-2.5v-10.9h2.5v4.3h1.4v-4.7h2.6v11.8h-2.6v-5h-1.4V134.6z"/>
		<path class="st3" d="M78.4,132.7v2.2H61.3v-2.2h7.2v-1.6h-5v-7.3h2.7v1.7h7.4v-1.7h2.7v7.3h-5.1v1.6H78.4z M63.2,136.2h13.2v6.1
			h-2.7v-4H63.2V136.2z M66.1,129.1h7.4v-1.5h-7.4V129.1z"/>
		<path class="st3" d="M90.7,127.5H79.6v-2.1h4.2v-2h2.7v2h4.2L90.7,127.5z M85.2,135.5c-2.7,0-4.6-1.5-4.6-3.7
			c0-2.1,1.9-3.6,4.6-3.6s4.6,1.5,4.6,3.6C89.8,134,87.9,135.5,85.2,135.5z M85,139.8h10.2v2.2H82.3v-5.5H85V139.8z M85.2,133.4
			c1.2,0,2.1-0.6,2.1-1.6s-0.9-1.6-2.1-1.6s-2.1,0.6-2.1,1.6C83.1,132.9,83.9,133.4,85.2,133.4z M97,129.2v2.2h-2.5v6.1h-2.7v-14.2
			h2.7v5.8L97,129.2L97,129.2z"/>
	</g>
	<g>
		<path class="st3" d="M104.8,137.6c0-0.7,0.1-1.4,0.4-2s0.6-1.1,1.1-1.6s0.9-0.9,1.5-1.3c0.5-0.4,1.1-0.8,1.6-1.1
			c0.4-0.3,0.8-0.6,1.2-0.9c0.4-0.3,0.7-0.5,1-0.8s0.5-0.6,0.7-0.8c0.2-0.3,0.3-0.6,0.3-0.9c0-0.6-0.2-1-0.6-1.4s-1-0.6-1.8-0.6
			s-1.4,0.2-1.9,0.7s-0.9,1.1-1.2,1.8l-2.8-1.4c0.5-1.2,1.3-2.2,2.3-2.9s2.2-1.1,3.6-1.1c0.9,0,1.7,0.1,2.4,0.4
			c0.7,0.2,1.3,0.6,1.8,1s0.9,0.9,1.1,1.5s0.4,1.2,0.4,1.9s-0.1,1.3-0.4,1.8s-0.6,1-1,1.5c-0.4,0.4-0.9,0.9-1.4,1.2
			c-0.5,0.4-1,0.7-1.5,1.1c-0.4,0.3-0.9,0.6-1.3,0.9c-0.4,0.3-0.8,0.6-1.1,0.9c-0.3,0.3-0.6,0.6-0.8,1c-0.2,0.3-0.3,0.7-0.3,1.1h7.8
			v3.1h-11L104.8,137.6L104.8,137.6z"/>
		<path class="st3" d="M118.7,126.7h3.2v1.9c0.5-0.6,1-1,1.7-1.4c0.7-0.3,1.5-0.5,2.4-0.5c1.7,0,3.1,0.5,4,1.5s1.5,2.4,1.5,4.3v8.1
			h-3.2v-7.7c0-1-0.3-1.9-0.8-2.5s-1.3-0.9-2.3-0.9c-0.9,0-1.7,0.3-2.3,0.9s-0.9,1.5-0.9,2.7v7.4h-3.2L118.7,126.7L118.7,126.7z"/>
		<path class="st3" d="M140.9,140.6c-0.8,0-1.7-0.2-2.5-0.5s-1.5-0.8-2.2-1.4c-0.6-0.6-1.2-1.3-1.6-2.2c-0.4-0.9-0.6-1.8-0.6-2.9
			c0-1.1,0.2-2.1,0.6-3s0.9-1.6,1.5-2.2s1.4-1,2.2-1.4c0.8-0.3,1.7-0.5,2.5-0.5c0.9,0,1.7,0.2,2.5,0.5s1.4,0.8,1.9,1.4V123h3.2v17.5
			h-3.2v-2c-0.5,0.6-1.2,1.1-1.9,1.5C142.6,140.4,141.8,140.6,140.9,140.6z M141.4,137.6c0.6,0,1.2-0.1,1.7-0.3s0.9-0.5,1.3-0.9
			c0.4-0.4,0.6-0.8,0.9-1.3s0.3-1,0.3-1.6c0-0.5-0.1-1.1-0.3-1.6s-0.5-0.9-0.9-1.3c-0.4-0.4-0.8-0.6-1.3-0.9
			c-0.5-0.2-1.1-0.3-1.7-0.3c-0.6,0-1.1,0.1-1.6,0.3s-1,0.5-1.3,0.8c-0.4,0.4-0.7,0.8-0.9,1.3s-0.3,1-0.3,1.6s0.1,1.1,0.3,1.6
			s0.5,0.9,0.9,1.3c0.4,0.4,0.8,0.6,1.3,0.9C140.3,137.5,140.8,137.6,141.4,137.6z"/>
		<path class="st3" d="M158.6,123.3h3.2v14.2h6.3v3.1h-9.5V123.3z"/>
		<path class="st3" d="M170.7,123.3c0-0.6,0.2-1.1,0.5-1.5c0.4-0.4,0.9-0.6,1.5-0.6s1.1,0.2,1.5,0.6c0.4,0.4,0.5,0.9,0.5,1.5
			s-0.2,1.1-0.5,1.4s-0.8,0.5-1.5,0.5c-0.6,0-1.1-0.2-1.5-0.5S170.7,123.9,170.7,123.3z M171.1,126.7h3.2v13.8h-3.2V126.7z"/>
		<path class="st3" d="M176.8,126.7h2.3l0,0c0-1,0.1-1.8,0.3-2.5s0.5-1.3,1-1.7s1.1-0.8,1.8-1s1.6-0.3,2.7-0.3h0.3v3
			c-0.6,0-1.1,0-1.5,0.1s-0.7,0.2-0.9,0.4s-0.3,0.5-0.4,0.8c-0.1,0.3-0.1,0.7-0.1,1.3h2.8v2.9h-2.8v11h-3.2v-11h-2.3L176.8,126.7
			L176.8,126.7z"/>
		<path class="st3" d="M193.9,140.6c-1.1,0-2.1-0.2-3-0.5c-0.9-0.4-1.7-0.8-2.3-1.5c-0.6-0.6-1.1-1.4-1.5-2.2s-0.5-1.7-0.5-2.7
			s0.2-1.9,0.6-2.7c0.4-0.9,0.9-1.6,1.5-2.2c0.6-0.6,1.4-1.1,2.3-1.5c0.9-0.4,1.8-0.5,2.8-0.5s2,0.2,2.8,0.5
			c0.9,0.3,1.6,0.8,2.3,1.4c0.6,0.6,1.1,1.3,1.5,2.1s0.5,1.7,0.5,2.7v1.1h-11.3c0.2,1,0.7,1.8,1.4,2.4c0.7,0.6,1.7,0.9,2.8,0.9
			c0.9,0,1.7-0.2,2.3-0.7c0.7-0.4,1.2-1,1.5-1.8l2.6,1.5c-0.6,1.1-1.4,2-2.5,2.7C196.8,140.2,195.4,140.6,193.9,140.6z M193.8,129.5
			c-1,0-1.8,0.2-2.5,0.6s-1.2,1-1.5,1.7h7.8c-0.2-0.8-0.7-1.3-1.4-1.7C195.6,129.7,194.8,129.5,193.8,129.5z"/>
		<path class="st3" d="M210.5,140.5v-17.3h5.5c1,0,1.9,0.1,2.7,0.4c0.8,0.3,1.5,0.7,2,1.2c0.6,0.5,1,1.2,1.3,1.9s0.4,1.5,0.4,2.4
			c0,1-0.2,2-0.7,2.9s-1.2,1.6-2.2,2.1l3.5,6.2h-3.7l-2.8-5.3h-2.9v5.3h-3.1V140.5z M215.8,132.3c0.7,0,1.2-0.1,1.7-0.2
			s0.8-0.4,1.1-0.7s0.5-0.6,0.6-1s0.2-0.8,0.2-1.2c0-0.9-0.3-1.6-0.8-2.1c-0.6-0.5-1.5-0.8-2.7-0.8h-2v6H215.8z"/>
		<path class="st3" d="M231.2,140.6c-1.1,0-2.1-0.2-3-0.5c-0.9-0.4-1.7-0.8-2.3-1.5c-0.6-0.6-1.1-1.4-1.5-2.2s-0.5-1.7-0.5-2.7
			s0.2-1.9,0.6-2.7c0.4-0.9,0.9-1.6,1.5-2.2c0.6-0.6,1.4-1.1,2.3-1.5c0.9-0.4,1.8-0.5,2.8-0.5s2,0.2,2.8,0.5
			c0.9,0.3,1.6,0.8,2.3,1.4c0.6,0.6,1.1,1.3,1.5,2.1s0.5,1.7,0.5,2.7v1.1H227c0.2,1,0.7,1.8,1.4,2.4c0.7,0.6,1.7,0.9,2.8,0.9
			c0.9,0,1.7-0.2,2.3-0.7c0.7-0.4,1.2-1,1.5-1.8l2.6,1.5c-0.6,1.1-1.4,2-2.5,2.7C234.1,140.2,232.8,140.6,231.2,140.6z M231.1,129.5
			c-1,0-1.8,0.2-2.5,0.6s-1.2,1-1.5,1.7h7.8c-0.2-0.8-0.7-1.3-1.4-1.7C233,129.7,232.1,129.5,231.1,129.5z"/>
		<path class="st3" d="M240.8,133.2h8.7v2.7h-8.7V133.2z"/>
		<path class="st3" d="M258.8,140.6c-0.8,0-1.7-0.2-2.5-0.5c-0.8-0.3-1.5-0.8-2.2-1.4c-0.6-0.6-1.2-1.3-1.6-2.2
			c-0.4-0.9-0.6-1.8-0.6-2.9c0-1.1,0.2-2.1,0.6-3s0.9-1.6,1.5-2.2c0.6-0.6,1.4-1,2.2-1.4c0.8-0.4,1.7-0.5,2.5-0.5
			c0.9,0,1.7,0.2,2.5,0.5s1.4,0.8,1.9,1.4V123h3.2v17.5h-3.2v-2c-0.5,0.6-1.2,1.1-1.9,1.5S259.7,140.6,258.8,140.6z M259.4,137.6
			c0.6,0,1.2-0.1,1.7-0.3s0.9-0.5,1.3-0.9s0.7-0.8,0.9-1.3c0.2-0.5,0.3-1,0.3-1.6c0-0.5-0.1-1.1-0.3-1.6c-0.2-0.5-0.5-0.9-0.9-1.3
			s-0.8-0.6-1.3-0.9c-0.5-0.2-1.1-0.3-1.7-0.3s-1.1,0.1-1.6,0.3s-1,0.5-1.3,0.8c-0.4,0.4-0.7,0.8-0.9,1.3s-0.3,1-0.3,1.6
			s0.1,1.1,0.3,1.6s0.5,0.9,0.9,1.3s0.8,0.6,1.3,0.9C258.2,137.5,258.8,137.6,259.4,137.6z"/>
		<path class="st3" d="M276.4,140.6c-1.1,0-2.1-0.2-3-0.5c-0.9-0.4-1.7-0.8-2.3-1.5c-0.6-0.6-1.1-1.4-1.5-2.2s-0.5-1.7-0.5-2.7
			s0.2-1.9,0.6-2.7c0.4-0.9,0.9-1.6,1.5-2.2s1.4-1.1,2.3-1.5s1.8-0.5,2.8-0.5s2,0.2,2.8,0.5c0.9,0.3,1.6,0.8,2.3,1.4
			c0.6,0.6,1.1,1.3,1.5,2.1s0.5,1.7,0.5,2.7v1.1h-11.3c0.2,1,0.7,1.8,1.4,2.4c0.7,0.6,1.7,0.9,2.8,0.9c0.9,0,1.7-0.2,2.3-0.7
			c0.7-0.4,1.2-1,1.5-1.8l2.6,1.5c-0.6,1.1-1.4,2-2.5,2.7S277.9,140.6,276.4,140.6z M276.3,129.5c-1,0-1.8,0.2-2.5,0.6
			s-1.2,1-1.5,1.7h7.8c-0.2-0.8-0.7-1.3-1.4-1.7C278.1,129.7,277.2,129.5,276.3,129.5z"/>
		<path class="st3" d="M291.2,140.6c-1.5,0-2.8-0.3-3.8-0.9s-1.8-1.4-2.3-2.5l3-1.3c0.3,0.6,0.8,1.1,1.3,1.4c0.6,0.3,1.2,0.5,2,0.5
			s1.4-0.2,1.8-0.5s0.6-0.7,0.6-1.1c0-0.2-0.1-0.4-0.3-0.6c-0.2-0.1-0.4-0.3-0.7-0.4c-0.3-0.1-0.6-0.2-1-0.3s-0.8-0.2-1.2-0.2
			c-0.6-0.1-1.2-0.3-1.8-0.4c-0.6-0.2-1.1-0.4-1.5-0.7c-0.5-0.3-0.8-0.7-1.1-1.1c-0.3-0.5-0.4-1-0.4-1.7c0-0.5,0.1-1,0.4-1.5
			s0.6-0.9,1.1-1.3c0.5-0.4,1-0.7,1.7-0.9s1.4-0.3,2.2-0.3c1.4,0,2.5,0.3,3.5,0.8c0.9,0.5,1.7,1.2,2.2,2.1l-2.7,1.3
			c-0.3-0.5-0.7-0.8-1.2-1.1s-1.1-0.4-1.8-0.4c-0.8,0-1.3,0.1-1.7,0.4c-0.4,0.3-0.5,0.6-0.5,1s0.3,0.7,0.8,0.9s1.3,0.4,2.4,0.6
			c0.6,0.1,1.1,0.2,1.7,0.4s1.1,0.4,1.6,0.7s0.9,0.7,1.1,1.1c0.3,0.5,0.4,1,0.4,1.7c0,0.5-0.1,1-0.3,1.5c-0.2,0.5-0.6,1-1,1.4
			c-0.5,0.4-1.1,0.8-1.8,1C293,140.4,292.2,140.6,291.2,140.6z"/>
		<path class="st3" d="M299,123.3c0-0.6,0.2-1.1,0.5-1.5c0.4-0.4,0.9-0.6,1.5-0.6s1.1,0.2,1.5,0.6c0.4,0.4,0.5,0.9,0.5,1.5
			s-0.2,1.1-0.5,1.4s-0.8,0.5-1.5,0.5c-0.6,0-1.1-0.2-1.5-0.5S299,123.9,299,123.3z M299.4,126.7h3.2v13.8h-3.2V126.7z"/>
		<path class="st3" d="M316.5,138.4c-0.5,0.7-1.2,1.2-1.9,1.6c-0.8,0.4-1.6,0.6-2.6,0.6c-0.8,0-1.7-0.2-2.5-0.5s-1.5-0.8-2.2-1.4
			c-0.6-0.6-1.2-1.3-1.6-2.2s-0.6-1.8-0.6-2.9c0-1.1,0.2-2.1,0.6-3s0.9-1.6,1.5-2.2c0.6-0.6,1.4-1,2.2-1.4s1.7-0.5,2.5-0.5
			c0.9,0,1.8,0.2,2.5,0.5s1.4,0.8,1.9,1.4v-2h3.2V140c0,1-0.2,1.9-0.5,2.7s-0.8,1.6-1.4,2.2c-0.6,0.6-1.3,1.1-2.2,1.5
			s-1.9,0.5-3.1,0.5c-0.9,0-1.7-0.1-2.4-0.3c-0.7-0.2-1.4-0.5-2-0.8c-0.6-0.4-1.1-0.8-1.5-1.3s-0.8-1-1.1-1.6l2.8-1.7
			c0.5,0.9,1.1,1.6,1.7,2.1s1.5,0.7,2.6,0.7c0.6,0,1.1-0.1,1.6-0.3s0.9-0.5,1.2-0.9c0.3-0.4,0.6-0.8,0.8-1.3c0.2-0.5,0.3-1,0.3-1.5
			v-1.6H316.5z M312.5,137.6c0.6,0,1.2-0.1,1.7-0.3s0.9-0.5,1.3-0.9s0.7-0.8,0.9-1.3c0.2-0.5,0.3-1,0.3-1.6c0-0.5-0.1-1.1-0.3-1.6
			c-0.2-0.5-0.5-0.9-0.9-1.3s-0.8-0.6-1.3-0.9c-0.5-0.2-1.1-0.3-1.7-0.3s-1.1,0.1-1.6,0.3s-1,0.5-1.3,0.8c-0.4,0.4-0.7,0.8-0.9,1.3
			c-0.2,0.5-0.3,1-0.3,1.6s0.1,1.1,0.3,1.6c0.2,0.5,0.5,0.9,0.9,1.3s0.8,0.6,1.3,0.9S311.9,137.6,312.5,137.6z"/>
		<path class="st3" d="M322.8,126.7h3.2v1.9c0.5-0.6,1-1,1.7-1.4s1.5-0.5,2.4-0.5c1.7,0,3.1,0.5,4,1.5c1,1,1.5,2.4,1.5,4.3v8.1h-3.2
			v-7.7c0-1-0.3-1.9-0.8-2.5s-1.3-0.9-2.3-0.9c-0.9,0-1.7,0.3-2.3,0.9c-0.6,0.6-0.9,1.5-0.9,2.7v7.4h-3.2v-13.8H322.8z"/>
	</g>
	<g>
		<path class="st3" d="M56.9,200c-2,0-3.8-0.2-5.4-0.7c-1.6-0.5-3.1-1.1-4.4-1.9s-2.4-1.7-3.3-2.8c-0.9-1-1.7-2.1-2.2-3.2l7.8-4.5
			c0.7,1.4,1.6,2.7,2.8,3.8s2.8,1.6,4.8,1.6c0.9,0,1.8-0.2,2.6-0.5s1.6-0.8,2.2-1.4c0.6-0.6,1.1-1.4,1.5-2.2
			c0.4-0.9,0.6-1.8,0.6-2.9c0-2.1-0.6-3.9-1.9-5.3c-1.3-1.4-3-2.2-5.2-2.2c-1.8,0-3.2,0.4-4.3,1.3c-1.1,0.9-2.1,2-2.9,3.3l-7.5-3.8
			l3.2-23.5h25v7.8H52l-1.3,9.4c0.9-0.6,1.9-1.1,3.1-1.5c1.2-0.4,2.5-0.6,3.9-0.6c2,0,3.9,0.3,5.7,1c1.8,0.7,3.3,1.6,4.7,2.9
			c1.3,1.3,2.4,2.8,3.1,4.7c0.8,1.9,1.1,4,1.1,6.5c0,2.2-0.4,4.2-1.1,6c-0.8,1.8-1.8,3.4-3.2,4.7c-1.4,1.3-3,2.3-4.9,3
			C61.2,199.6,59.1,200,56.9,200z"/>
		<path class="st3" d="M92.3,200c-2.5,0-4.6-0.3-6.5-1.1c-1.9-0.7-3.5-1.7-4.8-2.9c-1.3-1.3-2.3-2.8-3-4.5c-0.7-1.8-1-3.7-1-5.8
			v-16.1c0-2.1,0.4-4,1.1-5.8s1.8-3.3,3.1-4.7c1.4-1.3,3-2.4,4.8-3.1c1.9-0.7,3.9-1.1,6.2-1.1c2.3,0,4.4,0.4,6.3,1.1
			c1.9,0.8,3.5,1.8,4.8,3.1s2.4,2.9,3.1,4.7s1.1,3.7,1.1,5.7v16.2c0,2.2-0.3,4.1-1,5.9c-0.7,1.7-1.7,3.2-3,4.5s-2.9,2.2-4.8,2.9
			C96.9,199.6,94.8,200,92.3,200z M92.3,191.7c2.3,0,4-0.6,5.2-1.9c1.2-1.2,1.8-2.8,1.8-4.5v-15.4c0-2.1-0.6-3.7-1.8-4.9
			c-1.2-1.2-2.9-1.8-5.1-1.8c-2.3,0-4,0.7-5.2,2s-1.8,2.9-1.8,4.8v15.3c0,1.9,0.6,3.4,1.7,4.7C88.3,191.1,90,191.7,92.3,191.7z"/>
	</g>
	<g>
		<path class="st3" d="M112.4,158.7h4.9v-4.8h4.3v4.8h4.8v4.4h-4.8v4.8h-4.3v-4.8h-4.9V158.7z"/>
	</g>
</g>
<g>
	<path class="st3" d="M194,59.8v3.3h2.3v3.3c0,0.3,0,0.6-0.1,0.9c-0.1,0.6-0.7,1.7-2.3,1.7s-2.2-1-2.3-1.7c0-0.3-0.1-0.6-0.1-0.9
		V56.1c0-0.4,0-0.8,0.1-1.1c0.1-0.6,0.6-1.6,2.3-1.6s2.2,1.1,2.3,1.6c0.1,0.3,0.1,0.9,0.1,0.9v1.3h5.7v-0.7c0,0,0-0.8,0-1.5
		c-0.4-4.3-3.9-5.6-8-5.6c-4,0-7.5,1.4-8,5.6c0,0.4-0.1,1.1-0.1,1.5V66c0,0.4,0,0.7,0.1,1.5c0.4,4.1,4,5.6,8,5.6s7.6-1.5,8-5.6
		c0.1-0.8,0.1-1.1,0.1-1.5v-6.1H194V59.8z M154.5,49.9h-5.8v16.8c0,0.3,0,0.6-0.1,0.9c-0.1,0.6-0.6,1.6-2.2,1.6
		c-1.6,0-2.1-1.1-2.2-1.6c-0.1-0.2-0.1-0.6-0.1-0.9V49.9h-5.8v16.3c0,0.4,0,1.3,0,1.5c0.4,4.2,3.7,5.6,7.9,5.6s7.5-1.4,7.9-5.6
		c0-0.2,0.1-1.1,0.1-1.5V49.9H154.5z M101.6,49.9l-2.9,17.7l-2.9-17.7h-9.3L86,72.6h5.7l0.2-21l3.9,21h5.8l3.9-21l0.2,21h5.7
		l-0.5-22.7C110.9,49.9,101.6,49.9,101.6,49.9z M67.3,49.9l-4.2,22.7h6.1l3.2-21l3.1,21h6.1l-4.2-22.7
		C77.4,49.9,67.3,49.9,67.3,49.9z M174.6,68.1l-5.4-18.3h-8.4v22.5h5.6L166,53.5l5.8,18.9h8.1V49.9h-5.6L174.6,68.1z M122.9,55.8
		c-0.1-0.5-0.1-0.9,0-1.2c0.2-0.7,0.7-1.5,2.1-1.5c1.3,0,2.1,0.8,2.1,2v1.4h5.6v-1.6c0-4.9-4.4-5.7-7.6-5.7c-4,0-7.3,1.3-7.9,5
		c-0.2,1-0.2,1.9,0.1,3c1,4.6,9,5.9,10.1,8.8c0.2,0.6,0.1,1.2,0,1.7c-0.2,0.7-0.7,1.5-2.2,1.5c-1.4,0-2.3-0.8-2.3-2V65h-6v1.7
		c0,5,3.9,6.5,8.2,6.5c4.1,0,7.4-1.4,8-5.1c0.3-1.9,0.1-3.2,0-3.7C132.1,59.8,123.6,58.4,122.9,55.8 M49,55.7
		c-0.1-0.4-0.1-0.9,0-1.2c0.2-0.7,0.6-1.5,2.1-1.5c1.3,0,2.1,0.8,2.1,2.1v1.4h5.7v-1.6c0-4.9-4.5-5.7-7.7-5.7c-4,0-7.3,1.3-7.9,5
		c-0.2,1-0.2,1.9,0,3.1c1,4.6,9.1,6,10.2,8.9c0.2,0.5,0.2,1.2,0,1.7c-0.2,0.8-0.7,1.5-2.2,1.5c-1.4,0-2.3-0.8-2.3-2.1v-2.2h-6.1v1.7
		c0,5.1,4,6.6,8.3,6.6c4.1,0,7.5-1.4,8-5.2c0.3-2,0.1-3.2,0-3.7C58.3,59.8,49.6,58.4,49,55.7"/>
</g>
</svg>
