<?xml version="1.0" encoding="utf-8"?>
<!-- Generator: Adobe Illustrator 24.0.3, SVG Export Plug-In . SVG Version: 6.00 Build 0)  -->
<svg version="1.1" id="레이어_1" xmlns="http://www.w3.org/2000/svg" xmlns:xlink="http://www.w3.org/1999/xlink" x="0px"
	 y="0px" viewBox="0 0 467.2 212" style="enable-background:new 0 0 467.2 212;" xml:space="preserve">
<style type="text/css">
	.st0{clip-path:url(#SVGID_2_);}
	.st1{fill:#0F9CD8;}
	.st2{fill:#1C5EAA;}
	.st3{fill:#6CC9EB;}
</style>
<g>
	<defs>
		<rect id="SVGID_1_" width="800" height="212"/>
	</defs>
	<clipPath id="SVGID_2_">
		<use xlink:href="#SVGID_1_"  style="overflow:visible;"/>
	</clipPath>
	<g class="st0">
		<g>
			<path class="st1" d="M172.7-19.3C164.5-17.5,33.9,32,0,44.9v141.5c20.7-65.1,81.1-82.5,133-86.4c63.8-4.7,146.5-43.5,198-74
				s132-46.3,132-46.3S182.2-21.4,172.7-19.3z"/>
		</g>
		<path class="st2" d="M106.1,57.5c0,0,52.4-11.1,156.6-13.4C367,41.8,434.3,29.8,480-10s51.7-137.2,282.3-166.4
			c82.1-10.4-402.8,46.5-402.8,46.5L106.1,57.5z"/>
		<g>
			<path class="st3" d="M0-200v412.3C12,157.6,32.9,102.6,69.2,76C121.3,37.9,276,71,493.4-79.7C638.9-180.6,808-176,808-176v-24H0z
				"/>
		</g>
	</g>
</g>
</svg>
